<svg xmlns="http://www.w3.org/2000/svg" xmlns:xlink="http://www.w3.org/1999/xlink" viewBox="0 0 852.48 329.54">
  <defs>
    <style>
      .cls-1 {
        fill: url(#linear-gradient);
      }

      .cls-2 {
        fill: #108e9a;
      }

      .cls-3 {
        fill: #148f99;
      }

      .cls-4 {
        fill: #3ba0a0;
      }

      .cls-5 {
        fill: url(#_02);
      }

      .cls-6 {
        fill: #4ea597;
      }

      .cls-7 {
        fill: url(#linear-gradient-2);
      }

      .cls-8 {
        fill: url(#linear-gradient-3);
      }

      .cls-9 {
        fill: url(#_02-2);
      }

      .cls-10 {
        fill: url(#_02-3);
      }

      .cls-11 {
        fill: url(#_02-4);
      }

      .cls-12 {
        fill: url(#_02-5);
      }

      .cls-13 {
        fill: url(#_02-6);
      }

      .cls-14 {
        fill: url(#_02-7);
      }

      .cls-15 {
        fill: url(#_02-8);
      }

      .cls-16 {
        fill: url(#_02-9);
      }

      .cls-17 {
        fill: url(#_02-10);
      }

      .cls-18 {
        fill: url(#_02-11);
      }

      .cls-19 {
        fill: url(#_02-12);
      }

      .cls-20 {
        fill: url(#linear-gradient-4);
      }

      .cls-21 {
        fill: url(#_01);
      }
    </style>
    <linearGradient id="linear-gradient" x1="526.53" y1="200.4" x2="858.93" y2="67.19" gradientUnits="userSpaceOnUse">
      <stop offset="0.18" stop-color="#0c65a9"/>
      <stop offset="0.34" stop-color="#106fb0"/>
      <stop offset="0.74" stop-color="#1884bf"/>
      <stop offset="1" stop-color="#1b8cc4"/>
    </linearGradient>
    <linearGradient id="_02" data-name="02" x1="700.94" y1="260.58" x2="850.28" y2="162.03" gradientUnits="userSpaceOnUse">
      <stop offset="0" stop-color="#138c9f"/>
      <stop offset="1" stop-color="#4ea597"/>
    </linearGradient>
    <linearGradient id="linear-gradient-2" x1="648.11" y1="180.78" x2="708.97" y2="121.54" gradientUnits="userSpaceOnUse">
      <stop offset="0" stop-color="#138c9f"/>
      <stop offset="0.14" stop-color="#178e9e"/>
      <stop offset="0.27" stop-color="#23939d"/>
      <stop offset="0.41" stop-color="#369b9a"/>
      <stop offset="0.52" stop-color="#4ea597"/>
    </linearGradient>
    <linearGradient id="linear-gradient-3" x1="647.86" y1="180.52" x2="708.72" y2="121.29" xlink:href="#_02"/>
    <linearGradient id="_02-2" x1="-28.32" y1="137" x2="497.13" y2="25.93" xlink:href="#_02"/>
    <linearGradient id="_02-3" x1="-22.22" y1="165.85" x2="503.22" y2="54.79" xlink:href="#_02"/>
    <linearGradient id="_02-4" x1="-19.2" y1="180.14" x2="506.25" y2="69.08" xlink:href="#_02"/>
    <linearGradient id="_02-5" x1="-16.79" y1="191.54" x2="508.65" y2="80.48" xlink:href="#_02"/>
    <linearGradient id="_02-6" x1="-20.79" y1="172.63" x2="504.66" y2="61.56" xlink:href="#_02"/>
    <linearGradient id="_02-7" x1="59.55" y1="264.04" x2="351.64" y2="129.24" xlink:href="#_02"/>
    <linearGradient id="_02-8" x1="77.35" y1="302.61" x2="369.43" y2="167.8" xlink:href="#_02"/>
    <linearGradient id="_02-9" x1="79.3" y1="306.84" x2="371.39" y2="172.03" xlink:href="#_02"/>
    <linearGradient id="_02-10" x1="89.09" y1="328.05" x2="381.18" y2="193.24" xlink:href="#_02"/>
    <linearGradient id="_02-11" x1="93.23" y1="337.01" x2="385.31" y2="202.2" xlink:href="#_02"/>
    <linearGradient id="_02-12" x1="103.02" y1="358.23" x2="395.11" y2="223.42" xlink:href="#_02"/>
    <linearGradient id="linear-gradient-4" x1="360.13" y1="253.68" x2="437.24" y2="253.68" gradientUnits="userSpaceOnUse">
      <stop offset="0" stop-color="#1b8cc4"/>
      <stop offset="1" stop-color="#0c65a9"/>
    </linearGradient>
    <linearGradient id="_01" data-name="01" x1="2.9" y1="253.68" x2="80" y2="253.68" gradientUnits="userSpaceOnUse">
      <stop offset="0" stop-color="#0c65a9"/>
      <stop offset="1" stop-color="#1b8cc4"/>
    </linearGradient>
  </defs>
  <g id="Layer_2" data-name="Layer 2">
    <g id="Layer_2-2" data-name="Layer 2">
      <g>
        <g>
          <path class="cls-1" d="M845.12,147.09c-3.34-7.23-12.74-4.71-17.11-1.73-3.13-8.86-3.9-8.09-10.34-9.18.92-4,1.58-10.1,2.27-14,11.93-68.45-63.26-105-114.66-62.85-12.85,10.55-18.9,19.62-27.78,33.65C664.72,72.3,650.41,54.69,628,44.05c-32.44-15.37-72.38-3.34-87.2,30.84-18.09,41.73,3,85.37,33.4,114.91,21.2,20.58,46.89,36.61,65.7,59.78,11.74,14.38,15.21,23.76,21.73,40.68l.56,39.28c-9.23-47.79-42.24-67.83-79.93-93.56-52.91-36.11-94.85-86.66-86.86-154.7C501.62,28,549.21-6.74,602.17,1.1,638.24,6.45,656,24.34,677.11,52,704,10.72,747.67-6.44,794.41,13a92.12,92.12,0,0,1,49.13,49.48C854.2,89,856.05,120.74,845.12,147.09Z"/>
          <path class="cls-2" d="M642.31,316.16l-.95.17-3.49-3.8c-13.55-14.86-44.82-35.69-63.36-45.14-72.24-36.84-130-110.65-93.67-195,.35,2.2-1.27,14.37-1.53,17.74-5.49,72.21,44,126.75,101.18,163.17C599.58,265.42,635.13,293.77,642.31,316.16Z"/>
          <path class="cls-3" d="M593.36,54.29a30.22,30.22,0,0,1,11.42.6C603,56.6,591.89,59,587.51,62a53.86,53.86,0,0,0-22.63,34c-5.55,28.67,11,58.17,29,79.25,13.75,16.14,28.08,27.86,40.42,45.88-41.08-30-105.53-80.74-79.35-139.68C562,65.43,576.17,56.44,593.36,54.29Z"/>
          <path class="cls-4" d="M752.2,56.86a34,34,0,0,1,8.06-.16c19.61,2.09,34.69,11.63,42.61,31.11,4.56,11.19,3.4,21.92,2.65,33.6l-3.12-14.56a11.17,11.17,0,0,0-.34-1.26c-2.47-7.42-8.45-22.4-14.5-28.07-15.75-14.78-28-18.28-48.48-18.45C743.9,58.06,747.76,57.44,752.2,56.86Z"/>
          <g>
            <path class="cls-5" d="M839.84,156.82a2.23,2.23,0,0,1,.42,2.64c-2,3.85-4.93,7.78-7.12,11.45-10,16.7-18.34,34.88-29.23,51-17.22,25.53-47.35,48.32-75.92,59.3a40.41,40.41,0,0,1-3.94,1.31c-1.35,1-15.79,6.68-18.45,7.95-20.69,9.85-30.87,20.85-43.45,39.05l-.56-39.28c4.37-20.7,7.7-41.45,25.23-56.74,14.6-13.93,29.74-20.83,46-32.36,5.3-3.75,11.58-13.42,14.21-14.3,10.64,4.1,2.91,19.27-1,24.85-5.1,7.36-25.26,20.53-23.6,29,14.35,13,55-18.89,65.22-31,10.41-12.43,29.8-47.74,46-53.31a8.28,8.28,0,0,1,5.16,0A2.06,2.06,0,0,1,839.84,156.82Z"/>
            <path class="cls-6" d="M794,154.09h0a1.44,1.44,0,0,1,.75.89,6,6,0,0,1,.29,1.76c-2.09,22.82-5.8,43.15-21.77,59.71l-.72.15-.64.13a114.22,114.22,0,0,0,6.18-19.31c3.75-15.73,2.27-31.37,14.26-43.07A1.44,1.44,0,0,1,794,154.09Z"/>
            <path class="cls-6" d="M817.15,147.62a1.9,1.9,0,0,0-.92-1.3,1.94,1.94,0,0,0-1.64-.08l2.56,1.38c.9,13.76-13.83,30.64-21.4,42.17l-.65.91c-.47-2.2.47-5.72,1-8,3.3-13.84,5.6-28.33,18.48-36.5"/>
            <path class="cls-6" d="M772.11,174.06a.54.54,0,0,1,.94.18c4.38,15.25-1,38-12.08,49.39a2.53,2.53,0,0,1,0-1.2C765.11,208.13,762.93,185.79,772.11,174.06Z"/>
          </g>
          <g>
            <path class="cls-7" d="M676.83,154.82s-.83-.64-.93-.52c-.23.28,10.36,7.81,11.69,15.61a4,4,0,0,1-.55,3.43c-1.23,1.4-3.8,1-5,.77-6.54-1.16-11.08-6.93-12.93-9.34a40.06,40.06,0,0,1-5.89-10.91,48.07,48.07,0,0,1-2.72-14.75H648.71a4.81,4.81,0,0,0-4.82,4.81v18a4.81,4.81,0,0,0,4.82,4.81h14v14a4.81,4.81,0,0,0,4.81,4.82h18a4.81,4.81,0,0,0,4.81-4.82V174.1a17.79,17.79,0,0,0-6.35-13.64C682,158.8,679.6,157,676.83,154.82Z"/>
            <path class="cls-8" d="M704.26,139.11h-14v-14a4.81,4.81,0,0,0-4.81-4.82h-18a4.81,4.81,0,0,0-4.81,4.82v6.15c1.82,1.28,4.74,3.29,8.43,5.65,9.75,6.24,11.74,6.52,15.89,10.35a43.67,43.67,0,0,1,8.67,11.2,44.48,44.48,0,0,1,3.43,8.23h5.16a4.81,4.81,0,0,0,4.82-4.81v-18A4.81,4.81,0,0,0,704.26,139.11Z"/>
          </g>
        </g>
        <g>
          <g>
            <path class="cls-9" d="M110.12,68.9a27.45,27.45,0,0,1,27.23,27.23v19.69a6.6,6.6,0,0,0,6.29,6.71h2.51v20.61h-2.51a26.22,26.22,0,0,1-18.94-8,27.32,27.32,0,0,1-8-19.28V96.13a6.69,6.69,0,0,0-6.62-6.62h-13a6.71,6.71,0,0,0-6.71,6.62v19.69a27.45,27.45,0,0,1-27.23,27.32H27.32a26.71,26.71,0,0,1-19.27-8,27,27,0,0,1-8-19.28V68.9H20.7v46.92a6.71,6.71,0,0,0,6.62,6.71H63.19a6.86,6.86,0,0,0,4.61-2,6.26,6.26,0,0,0,2-4.7V96.13A27.45,27.45,0,0,1,97.13,68.9ZM36,162.16a10.61,10.61,0,0,1-15,15,10.51,10.51,0,0,1,7.54-18A10.41,10.41,0,0,1,36,162.16Zm31.09,0a10.85,10.85,0,1,1-7.54-3A10.42,10.42,0,0,1,67.13,162.16Z"/>
            <path class="cls-10" d="M187.46,117.67c.58,2.93,2.51,4.86,5.19,4.86h15.67v20.61H192.65a25.36,25.36,0,0,1-15.75-5.36,24.26,24.26,0,0,1-15.42,5.36H145.64V122.53h15.84c2.26,0,4.52-1.93,5.11-4.86V68.9h20.87Zm-2.77,44.74a10.85,10.85,0,1,1-7.54-3A10.44,10.44,0,0,1,184.69,162.41Z"/>
            <path class="cls-11" d="M251,117.67c.59,2.93,2.52,4.86,5.11,4.86h17v20.61h-17a25.16,25.16,0,0,1-15.67-5.36,24.65,24.65,0,0,1-15.5,5.36H207.82V122.53h17.09c2.26,0,4.61-1.93,5.2-4.86V68.9H251Zm-18.43,44.49a10.85,10.85,0,1,1-7.55-3A10.46,10.46,0,0,1,232.54,162.16Zm31.09,0a10.64,10.64,0,0,1-15.09,15,10.85,10.85,0,0,1,0-15,11,11,0,0,1,15.09,0Z"/>
            <path class="cls-12" d="M314.4,117.67c.59,2.93,2.52,4.86,5.2,4.86h15.67v20.61H319.6a25.36,25.36,0,0,1-15.75-5.36,24.26,24.26,0,0,1-15.42,5.36H272.59V122.53h15.84c2.26,0,4.52-1.93,5.11-4.86V68.9H314.4Zm-2.76,44.74a10.85,10.85,0,1,1-7.54-3A10.44,10.44,0,0,1,311.64,162.41Z"/>
            <path class="cls-13" d="M367.87,69.65a29.33,29.33,0,0,1,6.87-.75h38.71a27.64,27.64,0,0,1,19.28,8,27.33,27.33,0,0,1,8,19.27v19.7a27.45,27.45,0,0,1-27.32,27.23H334.76V122.53h12.49V31.94h20.62Zm6.87,19.86a6.76,6.76,0,0,0-6.62,6.7v26.32h45.33a7,7,0,0,0,4.69-2,6.35,6.35,0,0,0,2-4.61V96.21a6.84,6.84,0,0,0-6.71-6.7Z"/>
          </g>
          <g>
            <path class="cls-14" d="M83.33,219.11v-9.86h43.84v9.8h-16.3l-.55.61v64.78H100.13V219.71l-.56-.6Z"/>
            <path class="cls-15" d="M159.42,235.63a16.22,16.22,0,0,1,5.5.94,13.56,13.56,0,0,1,4.74,2.86l.44.44v.06a.76.76,0,0,1,.14.16.57.57,0,0,0,.14.17c.4.4.81.81,1.24,1.21a3.65,3.65,0,0,0,.91.72l.27-.06.72-.49.11-.22v-5.79h9.58v48.92h-9.58V279l-.17-.27-1-.39-.33.11a18.55,18.55,0,0,1-5.23,4.44,13.23,13.23,0,0,1-6.61,1.68,19.12,19.12,0,0,1-7.14-1.35,22.34,22.34,0,0,1-6.14-3.67,23.36,23.36,0,0,1-4.71-5.42,21.85,21.85,0,0,1-2.78-6.64v-.11a5.42,5.42,0,0,1-.19-1c-.06-.44-.1-1.09-.14-2s-.06-2-.08-3.41,0-3.22,0-5.43a16.61,16.61,0,0,1,1.76-7.38,22.74,22.74,0,0,1,4.66-6.36,24.38,24.38,0,0,1,6.52-4.49A17.23,17.23,0,0,1,159.42,235.63Zm14.26,24.51c0-1,0-2-.05-2.91a24.13,24.13,0,0,0-.33-3,8.41,8.41,0,0,0-1.46-3.78,11.35,11.35,0,0,0-2.87-2.83,13.19,13.19,0,0,0-3.66-1.77,13.47,13.47,0,0,0-3.91-.6,11,11,0,0,0-3.88.69,13.07,13.07,0,0,0-3.39,1.84,14.26,14.26,0,0,0-2.76,2.73,13.65,13.65,0,0,0-1.92,3.38,10.84,10.84,0,0,0-.69,2.65,22.34,22.34,0,0,0-.2,3,29.29,29.29,0,0,0,.22,3.58,21.51,21.51,0,0,0,.61,3.08,11,11,0,0,0,1.74,3.53,13,13,0,0,0,2.75,2.75,12.41,12.41,0,0,0,3.47,1.79,12.28,12.28,0,0,0,3.88.64,14.75,14.75,0,0,0,4.19-.61,12.16,12.16,0,0,0,3.72-1.82,11.12,11.12,0,0,0,2.83-3,11,11,0,0,0,1.6-4v-.61c0-.81.07-1.6.08-2.37S173.68,261,173.68,260.14Z"/>
            <path class="cls-16" d="M218.93,284.55a15.79,15.79,0,0,1-10.36-3.8l-.55-.61v-.06L208,280c-.14-.15-.38-.37-.71-.66s-.64-.7-.94-1a1.2,1.2,0,0,0-.82-.44l-.22.11-.55.6-.06.17v5.73h-9.53v-75h9.53V241.2l.16.27,1,.33.33-.11a18.38,18.38,0,0,1,5.26-4.43,13.35,13.35,0,0,1,6.64-1.68,18.93,18.93,0,0,1,7.13,1.37,22.21,22.21,0,0,1,6.14,3.75,23.75,23.75,0,0,1,4.71,5.51,24.29,24.29,0,0,1,2.89,6.66,6.49,6.49,0,0,1,.08.88c0,.41.05,1,.09,1.9s.06,2,.08,3.45,0,3.27,0,5.51a16.49,16.49,0,0,1-1.77,7.38,23,23,0,0,1-4.62,6.36,24,24,0,0,1-6.5,4.49A17.22,17.22,0,0,1,218.93,284.55ZM204.66,260c0,.95,0,1.93.06,2.92a18.75,18.75,0,0,0,.33,3,9.06,9.06,0,0,0,1.48,3.83,11.16,11.16,0,0,0,2.81,2.84A12.79,12.79,0,0,0,213,274.3a13.61,13.61,0,0,0,4,.61,11.48,11.48,0,0,0,3.89-.66,12.82,12.82,0,0,0,3.41-1.85,14.1,14.1,0,0,0,2.76-2.75,14.5,14.5,0,0,0,1.9-3.39,9.6,9.6,0,0,0,.68-2.65,23.56,23.56,0,0,0,.2-3.08,29,29,0,0,0-.22-3.53,22.08,22.08,0,0,0-.61-3.08,11.18,11.18,0,0,0-1.71-3.58,12.15,12.15,0,0,0-2.72-2.73,13.06,13.06,0,0,0-3.45-1.76,12,12,0,0,0-3.85-.63,14.32,14.32,0,0,0-4.21.63,13.49,13.49,0,0,0-3.78,1.82,11.08,11.08,0,0,0-2.89,2.94,10.27,10.27,0,0,0-1.57,4v.93c0,.74-.06,1.47-.08,2.21S204.66,259.24,204.66,260Z"/>
            <path class="cls-17" d="M251.22,220.54a5.76,5.76,0,0,1,.5-2.37,6.11,6.11,0,0,1,1.32-1.9,6,6,0,0,1,2-1.24,6.74,6.74,0,0,1,4.79,0,6.32,6.32,0,0,1,2,1.24,6,6,0,0,1,1.35,1.87,5.55,5.55,0,0,1,.5,2.34,5.9,5.9,0,0,1-.5,2.4,6.25,6.25,0,0,1-3.25,3.28,5.68,5.68,0,0,1-2.37.49,6.4,6.4,0,0,1-2.45-.46,6.48,6.48,0,0,1-2-1.3,6.08,6.08,0,0,1-1.35-1.95A5.93,5.93,0,0,1,251.22,220.54ZM262.3,235l.05,49.52h-9.58V235Z"/>
            <path class="cls-18" d="M298.23,284.55a15.76,15.76,0,0,1-10.35-3.8l-.55-.61v-.06l-.06-.05q-.22-.22-.72-.66t-.93-1a1.22,1.22,0,0,0-.83-.44l-.22.11-.55.6,0,.17v5.73h-9.53v-75H284V241.2l.16.27,1,.33.33-.11a18.52,18.52,0,0,1,5.26-4.43,13.37,13.37,0,0,1,6.64-1.68,18.89,18.89,0,0,1,7.13,1.37,22.26,22.26,0,0,1,6.15,3.75,24.24,24.24,0,0,1,4.71,5.51,24.6,24.6,0,0,1,2.89,6.66,8.71,8.71,0,0,1,.08.88c0,.41,0,1,.08,1.9s.07,2,.08,3.45,0,3.27,0,5.51a16.61,16.61,0,0,1-1.76,7.38,23.19,23.19,0,0,1-4.63,6.36,23.81,23.81,0,0,1-6.5,4.49A17.16,17.16,0,0,1,298.23,284.55ZM284,260c0,.95,0,1.93,0,2.92a21.42,21.42,0,0,0,.33,3,9.07,9.07,0,0,0,1.49,3.83,11.16,11.16,0,0,0,2.81,2.84,12.73,12.73,0,0,0,3.63,1.76,13.67,13.67,0,0,0,4,.61,11.42,11.42,0,0,0,3.88-.66,12.88,12.88,0,0,0,3.42-1.85,14.33,14.33,0,0,0,2.75-2.75,14.5,14.5,0,0,0,1.9-3.39,10,10,0,0,0,.69-2.65,23.59,23.59,0,0,0,.19-3.08,27.09,27.09,0,0,0-.22-3.53,22.14,22.14,0,0,0-.6-3.08,11.18,11.18,0,0,0-1.71-3.58,12,12,0,0,0-2.73-2.73,12.85,12.85,0,0,0-3.44-1.76,12,12,0,0,0-3.86-.63,14.37,14.37,0,0,0-4.21.63,13.43,13.43,0,0,0-3.77,1.82,10.93,10.93,0,0,0-2.89,2.94,10.12,10.12,0,0,0-1.57,4v.93c0,.74-.07,1.47-.09,2.21S284,259.24,284,260Z"/>
            <path class="cls-19" d="M330.53,220.54a5.76,5.76,0,0,1,.5-2.37,6.11,6.11,0,0,1,1.32-1.9A6,6,0,0,1,334.3,215a6.77,6.77,0,0,1,4.8,0,6.32,6.32,0,0,1,2,1.24,6,6,0,0,1,1.35,1.87,5.55,5.55,0,0,1,.5,2.34,5.9,5.9,0,0,1-.5,2.4,6.38,6.38,0,0,1-1.32,2,6.49,6.49,0,0,1-1.93,1.32,5.72,5.72,0,0,1-2.37.49,6.36,6.36,0,0,1-2.45-.46,6.48,6.48,0,0,1-2-1.3,6.08,6.08,0,0,1-1.35-1.95A5.93,5.93,0,0,1,330.53,220.54ZM341.6,235l.06,49.52h-9.59V235Z"/>
          </g>
          <path class="cls-20" d="M437.24,250.68H360.13c-3.86,0-3.87,6,0,6h77.11c3.86,0,3.87-6,0-6Z"/>
          <path class="cls-21" d="M2.9,256.68H80c3.87,0,3.87-6,0-6H2.9c-3.86,0-3.87,6,0,6Z"/>
        </g>
      </g>
    </g>
  </g>
</svg>
